<svg id="Layer_1" xmlns="http://www.w3.org/2000/svg" viewBox="0 0 107 40"><style>.st0{fill:#ef5655}</style><title>Logotype</title><g id="Arounda-Website"><g id="Index---Welcome-_x28_1680---1440_x29_" transform="translate(-120 -21)"><g id="Top" transform="translate(120 21)"><g id="Logotype"><g transform="translate(3 11)" id="Text-Logo"><path id="Fill-1" class="st0" d="M9.5 13.4V9.6C8.7 8.8 7.9 8.5 7 8.5c-1.7 0-2.9 1.3-2.9 3s1.2 3 2.9 3c.9 0 1.7-.3 2.5-1.1zm4.1 4.1H9.5v-.7c-.9.6-2 .9-3.4.9C2.8 17.7 0 15 0 11.5c0-3.6 2.8-6.2 6.1-6.2 1.4 0 2.5.3 3.4.9v-.7h4.1v12z"/><path id="Fill-15" class="st0" d="M81.1 13.4c-.8.9-1.7 1.1-2.5 1.1-1.7 0-2.9-1.3-2.9-3 0-1.6 1.2-3 2.9-3 .9 0 1.8.3 2.5 1.1v3.8zm0-12.3v5.2c-.9-.6-2-.9-3.4-.9-3.3 0-6.1 2.7-6.1 6.2 0 3.6 2.8 6.3 6.1 6.3 1.4 0 2.5-.3 3.4-.9v.6h4.1V0l-4.1 1.1z"/><path id="Fill-10" class="st0" d="M69.6 10.7v6.8h-4.1v-6.2c0-1.7-.9-2.5-2.3-2.5-.7 0-1.5.4-2.2 1.2v7.5h-4.1v-12H61v.8c1-.7 2.1-1.2 3.4-1.2 3 .1 5.2 2.2 5.2 5.6"/><path id="Fill-7" class="st0" d="M54 17.5h-4.1v-.8c-1 .7-2.1 1.2-3.4 1.2-3.1 0-5.3-2.1-5.3-5.5V5.5h4.1v6.2c0 1.7.9 2.5 2.3 2.5.8 0 1.6-.4 2.3-1.2V5.5H54v12z"/><path id="Fill-5" class="st0" d="M35.4 11.5c0-1.6-1.1-2.8-2.8-2.8-1.7 0-2.8 1.3-2.8 2.8 0 1.6 1.1 2.9 2.8 2.9 1.7 0 2.8-1.3 2.8-2.9m3.9 0c0 3.7-2.8 6.4-6.7 6.4-3.9 0-6.7-2.7-6.7-6.4 0-3.6 2.8-6.2 6.7-6.2 3.9 0 6.7 2.6 6.7 6.2"/><path id="Fill-3" class="st0" d="M24.8 9.1c-2 .1-3.3.6-4.2 1.5v6.9h-4.1v-12h4.1v1.3c1.1-.9 2.4-1.5 4.2-1.5v3.8z"/><path id="Fill-12" class="st0" d="M96.8 13.4V9.6c-.8-.8-1.7-1.1-2.5-1.1-1.7 0-2.9 1.3-2.9 3s1.2 3 2.9 3c.9 0 1.8-.3 2.5-1.1zm4.2 4.1h-4.1v-.7c-.9.6-2 .9-3.4.9-3.3 0-6.1-2.7-6.1-6.2 0-3.6 2.8-6.2 6.1-6.2 1.4 0 2.5.3 3.4.9v-.7h4.1v12z"/></g></g></g></g></g></svg>